<svg xmlns="http://www.w3.org/2000/svg" xmlns:xlink="http://www.w3.org/1999/xlink" version="1.1" x="0px" y="0px" viewBox="0 0 100 125" enable-background="new 0 0 100 100" xml:space="preserve"><path d="M79.57,5H20.429C11.908,5,5,11.908,5,20.429v59.143C5,88.092,11.908,95,20.429,95h59.143C88.092,95,95,88.092,95,79.57  V20.429C95,11.908,88.092,5,79.57,5z M35.955,42.197c0.006-0.01,0.013-0.021,0.021-0.033c0.179-0.322,0.371-0.635,0.572-0.943  c0.118-0.181,0.243-0.355,0.368-0.531c0.139-0.194,0.281-0.384,0.428-0.572c0.126-0.162,0.249-0.324,0.382-0.48  c0.25-0.296,0.511-0.583,0.782-0.861c0.132-0.135,0.271-0.265,0.408-0.396c0.195-0.186,0.394-0.367,0.599-0.543  c0.137-0.118,0.272-0.237,0.413-0.351c0.317-0.256,0.645-0.502,0.981-0.734c0.122-0.084,0.25-0.162,0.375-0.242  c0.266-0.173,0.537-0.338,0.814-0.496c0.133-0.075,0.265-0.152,0.4-0.224c0.385-0.203,0.776-0.395,1.177-0.567  c0.093-0.04,0.189-0.073,0.282-0.111c0.344-0.14,0.693-0.268,1.049-0.384c0.127-0.042,0.253-0.083,0.38-0.121  c0.442-0.132,0.888-0.251,1.344-0.345c0.05-0.011,0.103-0.017,0.153-0.027c0.419-0.083,0.845-0.145,1.274-0.195  c0.127-0.014,0.254-0.027,0.38-0.039c0.482-0.044,0.969-0.074,1.462-0.074s0.979,0.03,1.462,0.074  c0.126,0.012,0.253,0.025,0.379,0.039c0.432,0.049,0.855,0.112,1.275,0.195c0.051,0.01,0.104,0.016,0.152,0.027  c0.457,0.094,0.902,0.213,1.344,0.345c0.128,0.039,0.253,0.08,0.38,0.121c0.356,0.117,0.707,0.246,1.052,0.385  c0.094,0.038,0.188,0.07,0.279,0.11c0.4,0.172,0.793,0.364,1.179,0.568c0.133,0.07,0.265,0.146,0.396,0.22  c0.281,0.158,0.555,0.326,0.824,0.5c0.121,0.08,0.247,0.155,0.366,0.238c0.339,0.233,0.668,0.48,0.987,0.738  c0.138,0.112,0.271,0.229,0.404,0.345c0.207,0.179,0.41,0.363,0.608,0.552c0.134,0.129,0.271,0.255,0.399,0.388  c0.273,0.279,0.535,0.569,0.789,0.868c0.129,0.152,0.25,0.311,0.373,0.469c0.149,0.192,0.295,0.387,0.438,0.586  c0.123,0.172,0.246,0.344,0.362,0.521c1.651,2.526,2.62,5.54,2.62,8.783c0,8.874-7.196,16.07-16.07,16.07  c-8.876,0-16.071-7.196-16.071-16.07C33.929,47.166,34.668,44.51,35.955,42.197z M85.357,74.775c0,6.248-5.066,11.313-11.314,11.313  H25.957c-6.249,0-11.314-5.064-11.314-11.313V42.197h10.856c-0.784,2.462-1.213,5.083-1.213,7.803  C24.286,64.2,35.8,75.714,50,75.714S75.714,64.2,75.714,50c0-2.721-0.429-5.341-1.213-7.803h10.856V74.775z M85.357,29.13  c0,1.104-0.896,2-2.003,2H72.357c-1.105,0-2.001-0.895-2.001-2V18.132c0-1.105,0.896-2,2.001-2h10.997c1.107,0,2.003,0.896,2.003,2  V29.13z"/><text x="0" y="115" fill="#000000" font-size="5px" font-weight="bold" font-family="'Helvetica Neue', Helvetica, Arial-Unicode, Arial, Sans-serif">Created by TMD</text><text x="0" y="120" fill="#000000" font-size="5px" font-weight="bold" font-family="'Helvetica Neue', Helvetica, Arial-Unicode, Arial, Sans-serif">from the Noun Project</text></svg>