<?xml version="1.0" encoding="utf-8"?>
<!-- Generated by IcoMoon.io -->
<!DOCTYPE svg PUBLIC "-//W3C//DTD SVG 1.1//EN" "http://www.w3.org/Graphics/SVG/1.1/DTD/svg11.dtd">
<svg version="1.1" xmlns="http://www.w3.org/2000/svg" xmlns:xlink="http://www.w3.org/1999/xlink" width="679" height="1024" viewBox="0 0 679 1024">
<g id="icomoon-ignore">
</g>
<path fill="#000" d="M341.736 1024h-3.623c-193.208 0-338.113-146.113-338.113-340.528 0-134.038 42.264-236.679 86.943-344.151 20.528-49.509 42.264-101.434 60.377-159.396 53.132-161.811 135.245-179.925 192-179.925s138.868 18.113 192 179.925c19.321 57.962 39.849 109.887 60.377 159.396 44.679 107.472 86.943 210.113 86.943 344.151 1.208 194.415-144.906 340.528-336.906 340.528zM339.321 48.302c-31.396 0-97.811 0-146.113 147.321-19.321 60.377-41.057 112.302-62.792 163.019-44.679 107.472-83.321 201.66-83.321 326.038 0 166.642 124.377 292.226 289.811 292.226h3.623c165.434 0 289.811-125.585 289.811-292.226 0-124.377-38.642-217.358-83.321-326.038-20.528-50.717-42.264-102.642-62.792-163.019-47.094-147.321-113.509-147.321-144.906-147.321z"></path>
<path fill="#000" d="M339.321 408.151c-101.434 0-143.698 160.604-143.698 213.736 0 86.943 64 150.943 143.698 150.943s143.698-64 143.698-150.943c0-55.547-41.057-213.736-143.698-213.736z"></path>
</svg>
