<?xml version="1.0" encoding="utf-8"?>
<!-- Generated by IcoMoon.io -->
<!DOCTYPE svg PUBLIC "-//W3C//DTD SVG 1.1//EN" "http://www.w3.org/Graphics/SVG/1.1/DTD/svg11.dtd">
<svg version="1.1" xmlns="http://www.w3.org/2000/svg" xmlns:xlink="http://www.w3.org/1999/xlink" width="819" height="1024" viewBox="0 0 819 1024">
<g id="icomoon-ignore">
</g>
<path fill="#000" d="M63.002 598.656h330.829l236.314 189.030v-189.056h126.029c34.662 0 63.002-28.339 63.002-63.002v-441.114c0-34.662-28.339-63.027-63.002-63.027h-693.171c-34.637 0.026-63.002 28.365-63.002 63.027v441.114c0 34.662 28.365 63.027 63.002 63.027zM12.8 94.515c0-27.699 22.528-50.227 50.202-50.227h693.171c27.699 0 50.202 22.528 50.202 50.227v441.088c0 27.699-22.528 50.202-50.202 50.202h-138.829v175.232l-219.034-175.232h-335.309c-27.699 0-50.202-22.528-50.202-50.227v-441.062z"></path>
<path fill="#000" d="M218.496 373.274c32.154 0 58.214-26.061 58.214-58.214s-26.061-58.24-58.214-58.24-58.24 26.086-58.24 58.24c0 32.154 26.086 58.214 58.24 58.214zM218.496 269.619c25.037 0 45.414 20.378 45.414 45.44 0 25.037-20.378 45.414-45.414 45.414-25.062 0-45.44-20.378-45.44-45.414 0-25.062 20.403-45.44 45.44-45.44z"></path>
<path fill="#000" d="M409.805 373.274c32.154 0 58.24-26.061 58.24-58.214s-26.061-58.24-58.24-58.24-58.214 26.061-58.214 58.24c-0.026 32.154 26.035 58.214 58.214 58.214zM409.805 269.619c25.062 0 45.44 20.378 45.44 45.44 0 25.037-20.378 45.414-45.44 45.414-25.037 0-45.414-20.378-45.414-45.414-0.026-25.062 20.352-45.44 45.414-45.44z"></path>
<path fill="#000" d="M601.088 373.274c32.154 0 58.214-26.061 58.214-58.214s-26.061-58.24-58.214-58.24c-32.154 0-58.24 26.061-58.24 58.24 0.026 32.154 26.086 58.214 58.24 58.214zM601.088 269.619c25.037 0 45.414 20.378 45.414 45.44 0 25.037-20.378 45.414-45.414 45.414-25.062 0-45.44-20.378-45.44-45.414 0.026-25.062 20.403-45.44 45.44-45.44z"></path>
</svg>
