<?xml version="1.0" encoding="utf-8"?>
<!-- Generated by IcoMoon.io -->
<!DOCTYPE svg PUBLIC "-//W3C//DTD SVG 1.1//EN" "http://www.w3.org/Graphics/SVG/1.1/DTD/svg11.dtd">
<svg version="1.1" xmlns="http://www.w3.org/2000/svg" xmlns:xlink="http://www.w3.org/1999/xlink" width="1024" height="1024" viewBox="0 0 1024 1024">
<g id="icomoon-ignore">
</g>
<path fill="#000" d="M195.232 515.269c-56.845 13.107-99.232 64.079-99.232 124.731 0 70.692 57.534 128 128.090 128h543.82c70.742 0 128.090-57.451 128.090-128 0-59.775-41.136-109.981-96.498-124.062v0c-6.127-73.885-68.035-131.938-143.502-131.938-34.439 0-66.055 12.090-90.834 32.257-26.285-74.707-97.471-128.257-181.166-128.257-106.039 0-192 85.961-192 192 0 12.048 1.11 23.836 3.232 35.269v0zM828.252 491.696c58.574 23.776 99.748 81.218 99.748 148.304 0 88.186-71.626 160-159.982 160h-544.036c-88.542 0-159.982-71.634-159.982-160 0-65.628 39.669-122.189 96.381-146.831v0c-0.253-4.357-0.381-8.748-0.381-13.169 0-123.712 100.288-224 224-224 83.608 0 156.518 45.806 195.002 113.692 23.258-11.333 49.385-17.692 76.998-17.692 84.757 0 155.521 59.912 172.252 139.696v0 0z"></path>
</svg>
