<?xml version="1.0" encoding="utf-8"?>
<!-- Generated by IcoMoon.io -->
<!DOCTYPE svg PUBLIC "-//W3C//DTD SVG 1.1//EN" "http://www.w3.org/Graphics/SVG/1.1/DTD/svg11.dtd">
<svg version="1.1" xmlns="http://www.w3.org/2000/svg" xmlns:xlink="http://www.w3.org/1999/xlink" width="410" height="512" viewBox="0 0 410 512">
<g id="icomoon-ignore">
</g>
<path fill="#000" d="M219.827 128.647c-1.659-6.693-7.401-11.191-14.295-11.191 0 0-0.004 0-0.004 0-6.893 0-12.641 4.493-14.323 11.281l-25.571 108.888c-3.514 6.656-5.296 13.677-5.296 20.877 0 24.92 20.275 45.191 45.196 45.191s45.191-20.275 45.191-45.191c0-7.422-1.868-14.611-5.559-21.385l-25.338-108.471zM205.532 288.010c-16.273 0-29.507-13.234-29.507-29.507 0-4.858 1.298-9.655 3.855-14.246 0.352-0.635 0.619-1.319 0.786-2.028l24.858-105.87 24.625 105.403c0.172 0.745 0.454 1.466 0.839 2.13 2.687 4.666 4.051 9.581 4.051 14.607 0 16.277-13.234 29.512-29.507 29.512z"></path>
<path fill="#000" d="M204.75 61.44c-107.282 0-194.56 87.278-194.56 194.56 0 107.279 87.278 194.56 194.56 194.56 107.279 0 194.56-87.277 194.56-194.56s-87.277-194.56-194.56-194.56zM204.75 434.873c-98.632 0-178.873-80.24-178.873-178.873s80.24-178.873 178.873-178.873c98.632 0 178.873 80.24 178.873 178.873s-80.24 178.873-178.873 178.873z"></path>
<path fill="#000" d="M127.942 321.724l-27.32 27.316c-3.064 3.060-3.064 8.028 0 11.092 1.532 1.532 3.539 2.298 5.546 2.298s4.014-0.766 5.546-2.298l27.321-27.316c3.064-3.060 3.064-8.028 0-11.092s-8.028-3.064-11.092 0z"></path>
<path fill="#000" d="M111.808 256c0-4.329-3.51-7.844-7.844-7.844h-38.633c-4.33 0-7.844 3.511-7.844 7.844 0 4.329 3.511 7.844 7.844 7.844h38.633c4.334 0 7.844-3.51 7.844-7.844z"></path>
<path fill="#000" d="M127.942 190.28c1.532 1.532 3.539 2.298 5.546 2.298s4.014-0.766 5.546-2.298c3.064-3.059 3.064-8.028 0-11.092l-27.32-27.321c-3.059-3.064-8.032-3.064-11.092 0-3.064 3.059-3.064 8.028 0 11.092l27.32 27.321z"></path>
<path fill="#000" d="M276.021 192.577c2.007 0 4.014-0.766 5.546-2.298l27.316-27.321c3.064-3.064 3.064-8.028 0-11.092-3.064-3.060-8.028-3.060-11.092 0l-27.316 27.321c-3.064 3.064-3.064 8.028 0 11.092 1.532 1.532 3.539 2.298 5.546 2.298z"></path>
<path fill="#000" d="M344.173 248.156h-38.637c-4.329 0-7.844 3.511-7.844 7.844 0 4.329 3.51 7.844 7.844 7.844h38.637c4.329 0 7.844-3.51 7.844-7.844-0.004-4.329-3.514-7.844-7.844-7.844z"></path>
<path fill="#000" d="M281.563 321.724c-3.064-3.064-8.028-3.064-11.092 0s-3.064 8.028 0 11.092l27.316 27.316c1.532 1.532 3.539 2.298 5.546 2.298s4.014-0.766 5.546-2.298c3.064-3.064 3.064-8.028 0-11.092l-27.316-27.316z"></path>
</svg>
