<?xml version="1.0" encoding="utf-8"?>
<!-- Generated by IcoMoon.io -->
<!DOCTYPE svg PUBLIC "-//W3C//DTD SVG 1.1//EN" "http://www.w3.org/Graphics/SVG/1.1/DTD/svg11.dtd">
<svg version="1.1" xmlns="http://www.w3.org/2000/svg" xmlns:xlink="http://www.w3.org/1999/xlink" width="1024" height="1024" viewBox="0 0 1024 1024">
<g id="icomoon-ignore">
</g>
<path fill="#e3e9ea" d="M512 0c-14.96 0-28.972 7.349-37.475 19.661-32.659 47.278-319.037 467.115-319.037 647.84 0.012 196.571 159.946 356.493 356.512 356.493 196.577 0 356.512-159.928 356.512-356.5 0-180.725-286.378-600.555-319.024-647.834-8.509-12.312-22.515-19.661-37.487-19.661zM512 932.894c-146.329 0-265.393-119.058-265.405-265.393 0-112.893 167.089-390.664 265.405-540.286 98.328 149.621 265.405 427.392 265.405 540.286 0 146.335-119.064 265.393-265.405 265.393z"></path>
</svg>
