<?xml version="1.0" encoding="utf-8"?>
<!-- Generated by IcoMoon.io -->
<!DOCTYPE svg PUBLIC "-//W3C//DTD SVG 1.1//EN" "http://www.w3.org/Graphics/SVG/1.1/DTD/svg11.dtd">
<svg version="1.1" xmlns="http://www.w3.org/2000/svg" xmlns:xlink="http://www.w3.org/1999/xlink" width="768" height="768" viewBox="0 0 768 768">
<g id="icomoon-ignore">
</g>
<path fill="#000" d="M288 288h132.829v68.087h1.899c18.48-33.146 63.718-68.087 131.131-68.087 140.21 0 166.14 87.282 166.14 200.8v231.2h-138.457v-204.958c0-48.888-1-111.77-72.021-111.77-72.111 0-83.115 53.24-83.115 108.219v208.509h-138.407v-432z"></path>
<path fill="#000" d="M48 288h144v432h-144v-432z"></path>
<path fill="#000" d="M192 168c0 39.764-32.236 72-72 72s-72-32.236-72-72c0-39.764 32.236-72 72-72s72 32.236 72 72z"></path>
</svg>
