<?xml version="1.0" encoding="utf-8"?>
<!-- Generated by IcoMoon.io -->
<!DOCTYPE svg PUBLIC "-//W3C//DTD SVG 1.1//EN" "http://www.w3.org/Graphics/SVG/1.1/DTD/svg11.dtd">
<svg version="1.1" xmlns="http://www.w3.org/2000/svg" xmlns:xlink="http://www.w3.org/1999/xlink" width="1024" height="1024" viewBox="0 0 1024 1024">
<g id="icomoon-ignore">
</g>
<path fill="#e2e8e9" d="M832.002 704.006h-64.003c-70.689 0-128.003-57.315-128.003-128.006v-41.119c28.318-33.657 48.628-73.468 61.253-115.535 1.311-7.091 8.136-10.594 12.688-15.469 24.504-24.5 29.322-65.845 10.943-95.283-2.503-4.468-7.011-8.342-6.755-13.878 0-37.532 0.188-75.123-0.049-112.625-1.005-45.279-13.946-92.38-45.691-125.908-25.629-27.089-60.82-43.219-97.126-50.123-45.878-8.752-93.876-8.309-139.315 3.25-39.378 9.938-76.374 33.001-99.249 67.187-20.256 29.721-29.13 65.809-30.629 101.376-0.561 38.186-0.129 76.467-0.245 114.746 0.872 7.663-5.628 12.848-8.564 19.192-17.312 31.405-9.691 74.192 18.126 97.033 7.057 4.871 8.378 13.749 10.934 21.404 12.131 37.812 32.251 72.782 57.688 103.252v42.5c0 70.691-57.313 128.006-127.999 128.006h-64.005c0 0-115.997 31.99-192.002 191.996v64.003c0 35.369 28.626 63.99 64.003 63.99h896.005c35.369 0 63.992-28.622 63.992-63.99v-64.003c-76.001-159.993-191.998-191.996-191.998-191.996z"></path>
</svg>
