<?xml version="1.0" encoding="utf-8"?>
<!-- Generated by IcoMoon.io -->
<!DOCTYPE svg PUBLIC "-//W3C//DTD SVG 1.1//EN" "http://www.w3.org/Graphics/SVG/1.1/DTD/svg11.dtd">
<svg version="1.1" xmlns="http://www.w3.org/2000/svg" xmlns:xlink="http://www.w3.org/1999/xlink" width="819" height="1024" viewBox="0 0 819 1024">
<g id="icomoon-ignore">
</g>
<path fill="#000" d="M575.619 260.686c5.71-3.637 11.436-7.512 17.121-11.903 60.064-46.506 56.050-92.799 55.853-94.74l-1.057-10.248-10.306 0.41c-2.753 0.106-67.871 3.088-114.696 39.338-0.369 0.287-0.696 0.598-1.065 0.877 4.112-31.572-5.849-53.674-6.488-55.042l-3.555-7.545-8.225 1.401c-2.556 0.434-62.898 11.174-92.037 57.156-2.982 4.71-5.546 9.708-7.881 14.828l-0.778-6.636c-0.41-3.121-0.868-6.119-1.335-9.11l-0.737-4.817c-0.27-1.679-0.5-3.219-0.729-4.768-0.467-3.097-0.934-6.201-1.507-9.265l-0.942-4.874-1.647-8.536c-1.245-7.119-2.908-14.057-4.522-20.767l-1.327-5.562c-1.507-6.881-3.4-13.394-5.235-19.694l-1.343-4.645-1.63-5.628-1.556-5.39-0.082-0.287-0.098-0.287-3.457-9.994c-0.762-2.179-1.475-4.252-2.154-6.25-1.434-4.194-2.777-8.126-4.153-11.674-2.171-5.292-3.99-9.716-5.464-13.345l-4.776-11.559-5.153-12.419-42.271 28.574 3.58 8.339 4.506 10.519 1.343 3.129 3.85 8.978c1.024 2.58 2.154 5.726 3.351 9.069 0.754 2.114 1.54 4.301 2.367 6.545l2.073 5.693 1.18 3.236 1.466 4.817 1.54 5.071 1.352 4.424c1.688 5.489 3.424 11.166 4.784 17.023l1.335 5.235c1.54 6.005 3.138 12.222 4.317 18.465 0.918 4.358 1.778 8.511 2.63 12.698 0.541 2.638 0.975 5.276 1.409 7.922 0.221 1.352 0.442 2.703 0.68 4.047-2.048-3.301-4.186-6.513-6.496-9.568-34.718-45.916-97.632-49.365-100.295-49.488l-8.372-0.393-2.58 7.979c-0.492 1.507-7.815 25.428-1.049 57.623-25.969-11.96-53.314-14.778-72.909-14.778-17.687 0-29.811 2.204-30.319 2.294l-9.65 1.786 0.696 9.781c0.156 2.187 4.53 54.051 68.993 93.078 2.163 1.311 4.301 2.351 6.455 3.547-212.967 125.239 62.98 514.13 214.041 514.13 156.107 0.008 454.058-451.035 162.955-538.796zM181.379 404.75c-0.975 0.983-1.991 1.483-3.039 1.483-7.119-0.016-10.453-16.114-10.559-27.533-0.074-6.087 4.645-8.331 8.028-8.831l0.025-0.115h1.589l0.565-0.008h0.057c0.139 0 0.27 0 0.418 0.008h0.115c4.088 0.205 9.732 2.793 9.806 9.429 0.115 9.56-3.228 21.742-7.004 25.567zM216.343 555.639c-1.343 1.466-2.72 1.769-3.637 1.769-7.496 0-11.985-16.138-12.73-24.773-0.614-7.34 5.743-10.641 9.888-11.002l1.925-0.172c0.262-0.025 0.532-0.033 0.819-0.033 3.736 0 8.282 2.277 8.815 8.7 0.745 8.651-1.155 21.25-5.079 25.51zM254.444 444.973c-1.204-7.258 4.874-11.059 9.011-11.764 0.287-0.041 0.516-0.082 0.696-0.106 0.516-0.090 1.13-0.147 1.794-0.147 0.41 0 0.827 0.016 1.245 0.066h0.188v0.025c3.654 0.442 7.397 2.638 8.233 7.733 1.163 7.037 2.343 25.756-6.103 27.812-0.352 0.090-0.721 0.131-1.081 0.131-6.717 0.008-12.591-15.229-13.984-23.749zM290.529 669.254c-0.918 1.974-2.236 2.793-3.195 3.129-0.451 0.164-0.934 0.246-1.434 0.246-5.775 0-14.598-12.288-17.727-20.586-0.958-2.58-0.868-5.186 0.254-7.528 1.565-3.244 4.801-5.292 7.479-6.144 0 0 1.057-0.188 2.54-0.188 4.817 0 8.356 2.064 9.708 5.652 3.129 8.274 4.874 20.038 2.376 25.42zM330.76 585.064c-1.311 1.499-2.72 1.81-3.67 1.81l-0.319-0.008-0.147-0.016c-8.192-0.868-12.452-16.122-13.55-24.068-0.352-2.695 0.344-5.218 2.015-7.291 2.269-2.818 5.784-4.088 7.471-4.235 0.852-0.074 1.212-0.090 1.343-0.090 0.328-0.033 0.68-0.049 1.040-0.049s0.721 0.016 1.081 0.049h0.451v0.057c3.596 0.492 7.193 2.769 7.881 7.979 1.229 8.872 0.057 21.668-3.596 25.862zM345.752 387.719c-0.975 0.983-1.999 1.483-3.039 1.483-7.119-0.008-10.453-16.105-10.559-27.533-0.066-5.39 3.916-8.258 8.036-8.839l0.025-0.115h2.212c0.098 0 0.205 0 0.311 0h0.213v0.008c4.088 0.205 9.732 2.785 9.806 9.421 0.115 9.56-3.228 21.742-7.004 25.575zM470.598 392.659c1.196-4.719 4.989-7.528 10.142-7.528 0.983 0 1.95 0.115 2.793 0.328l0.721 0.18c2.13 0.532 4.956 2.040 6.545 4.678 1.212 2.023 1.532 4.424 0.893 6.922-1.597 6.455-7.496 23.208-15.499 23.208-0.442 0-0.877-0.049-1.303-0.156-1.098-0.254-2.662-0.983-3.891-2.998-3.391-5.562-2.105-17.768-0.401-24.633zM391.111 756.761c-0.934 1.196-2.22 1.868-3.703 1.868 0 0 0 0 0 0-5.865-0.164-12.607-12.206-14.664-20.439-1.647-6.644 3.686-10.592 7.414-11.518 0.721-0.172 1.63-0.279 2.564-0.279 4.792 0 8.258 2.392 9.249 6.398 1.81 7.258 2.523 19.636-0.86 23.97zM388.874 479.773c-0.983-6.324 4.932-10.248 8.577-11.567l0.246-0.090 0.254-0.041 1.155-0.188h0.295c0.287-0.025 0.59-0.041 0.909-0.041 0.303 0 0.606 0.016 0.918 0.041h0.655v0.066c3.686 0.483 7.397 2.695 8.184 7.766 0.492 3.039 2.687 18.53-2.064 25.002-1.163 1.573-2.703 2.548-4.448 2.802l-0.41 0.041h-0.197c-6.39 0.008-12.747-15.393-14.074-23.79zM422.191 667.746c-1.319 1.909-2.941 2.515-4.071 2.671l-0.549 0.057h-0.205c-7.127 0-13.378-14.926-15.147-22.921-1.655-7.537 5.538-11.592 8.348-12.214l0.778-0.172c0.721-0.164 1.54-0.238 2.343-0.238 4.915 0 8.446 2.744 9.454 7.332 1.393 6.308 3.006 19.759-0.95 25.485zM466.592 579.871l-0.696-0.041-0.36-0.098c-7.234-1.999-6.275-19.251-4.194-27.607 1.188-4.727 4.981-7.545 10.158-7.545 0.958 0 1.901 0.106 2.777 0.319 0.262 0.066 0.606 0.156 0.958 0.279l0.008-0.025c4.547 1.253 8.733 5.407 7.201 11.526-2.261 9.126-10.084 23.192-15.852 23.192zM498.852 707.994c-1.982 7.881-9.445 20.439-14.557 20.439l-0.418-0.016-0.238-0.041c-0.95-0.172-2.327-0.729-3.441-2.441-2.892-4.456-2.564-15.385-0.582-23.38 0.999-3.998 4.465-6.382 9.265-6.382 0.918 0 1.827 0.098 2.556 0.27 3.727 0.942 9.052 4.899 7.414 11.551zM536.478 459.653c1.188-4.71 4.973-7.528 10.158-7.528 0.958 0 1.901 0.106 2.753 0.311l0.737 0.172c3.924 0.983 9.134 4.891 7.455 11.608-1.999 8.094-8.626 23.233-15.532 23.233-0.5 0-0.975-0.074-1.442-0.221-7.201-2.236-6.242-19.063-4.129-27.574zM557.826 626.45c-1.745 6.98-8.307 20.562-14.148 20.562-0.623 0-1.212-0.139-1.778-0.41-4.686-2.294-5.358-17.334-3.293-25.543 0.991-4.030 4.399-6.341 9.363-6.341 0.909 0 1.696 0.082 2.195 0.164 1.95 0.295 4.801 1.901 6.463 4.415 1.417 2.13 1.835 4.604 1.196 7.152zM589.267 347.455c-2.13 8.569-7.856 22.176-14.172 22.176-0.319 0-0.655-0.033-0.975-0.115-1.229-0.287-2.253-1.090-3.039-2.384-2.818-4.604-2.22-15.581-0.238-23.585 1.024-4.063 4.317-6.488 8.815-6.488 1.090 0 1.933 0.156 2.449 0.279l0.672 0.172h0.049l0.172 0.049 1.229 0.319-0.016 0.098c3.416 1.417 6.234 4.776 5.054 9.478zM625.934 532.275c-1.95 7.84-8.749 23.208-15.63 23.208-0.467 0-0.909-0.066-1.343-0.197-5.923-1.786-6.226-19.194-4.129-27.566 1.155-4.628 5.218-7.397 10.846-7.397 0.786 0 1.425 0.057 1.81 0.123 0.418 0.066 1.122 0.172 1.778 0.475 1.999 0.672 4.383 2.122 5.775 4.448 1.212 2.007 1.516 4.407 0.893 6.906zM647.438 427.999c-0.336 0-0.688-0.049-1.024-0.147-5.825-1.655-5.603-16.392-3.219-25.952 1.008-4.071 4.301-6.496 8.798-6.496 1.106 0 1.95 0.156 2.449 0.279l0.59 0.147h0.049l0.164 0.041 1.327 0.336v0.106c3.441 1.425 6.259 4.776 5.054 9.478-2.302 9.314-8.52 22.209-14.189 22.209z"></path>
</svg>
