<?xml version="1.0" encoding="utf-8"?>
<!-- Generated by IcoMoon.io -->
<!DOCTYPE svg PUBLIC "-//W3C//DTD SVG 1.1//EN" "http://www.w3.org/Graphics/SVG/1.1/DTD/svg11.dtd">
<svg version="1.1" xmlns="http://www.w3.org/2000/svg" xmlns:xlink="http://www.w3.org/1999/xlink" width="1024" height="1024" viewBox="0 0 1024 1024">
<g id="icomoon-ignore">
</g>
<path fill="#fff" d="M896 320c35.312 0 64 28.688 64 64v512c0 35.312-28.688 64-64 64h-768c-35.282 0-64-28.688-64-64v-512c0-35.312 28.718-64 64-64h768zM896 256h-768c-70.688 0-128 57.312-128 128v512c0 70.688 57.312 128 128 128h768c70.688 0 128-57.312 128-128v-512c0-70.688-57.312-128-128-128v0zM320 192v-64c0-35.25 28.718-64 64-64h256c35.312 0 64 28.75 64 64v64h64v-64c0-70.688-57.312-128-128-128h-256c-70.688 0-128 57.312-128 128v64h64zM832 512c0-17.688-14.312-32-32-32h-576c-17.688 0-32 14.312-32 32v0c0 17.688 14.312 32 32 32h576c17.688 0 32-14.312 32-32v0zM832 640c0-17.688-14.312-32-32-32h-576c-17.688 0-32 14.312-32 32v0c0 17.688 14.312 32 32 32h576c17.688 0 32-14.312 32-32v0zM832 768c0-17.688-14.312-32-32-32h-576c-17.688 0-32 14.312-32 32v0c0 17.688 14.312 32 32 32h576c17.688 0 32-14.312 32-32v0z"></path>
</svg>
